<svg width="48" height="48" viewBox="0 0 48 48" fill="none" xmlns="http://www.w3.org/2000/svg">
  <g fill="white">
    <!-- Left building -->
    <rect x="12" y="26" width="7" height="16" rx="0.5"/>
    <rect x="14" y="28" width="1.2" height="2" fill="#fff" opacity="0.3"/>
    <rect x="16.5" y="28" width="1.2" height="2" fill="#fff" opacity="0.3"/>
    <rect x="14" y="31" width="1.2" height="2" fill="#fff" opacity="0.3"/>
    <rect x="16.5" y="31" width="1.2" height="2" fill="#fff" opacity="0.3"/>
    <rect x="14" y="34" width="1.2" height="2" fill="#fff" opacity="0.3"/>
    <rect x="16.5" y="34" width="1.2" height="2" fill="#fff" opacity="0.3"/>
    
    <!-- Middle building (tallest) -->
    <rect x="20" y="20" width="8" height="22" rx="0.5"/>
    <rect x="22" y="23" width="1.2" height="2" fill="#fff" opacity="0.3"/>
    <rect x="24.8" y="23" width="1.2" height="2" fill="#fff" opacity="0.3"/>
    <rect x="22" y="26" width="1.2" height="2" fill="#fff" opacity="0.3"/>
    <rect x="24.8" y="26" width="1.2" height="2" fill="#fff" opacity="0.3"/>
    <rect x="22" y="29" width="1.2" height="2" fill="#fff" opacity="0.3"/>
    <rect x="24.8" y="29" width="1.2" height="2" fill="#fff" opacity="0.3"/>
    <rect x="22" y="32" width="1.2" height="2" fill="#fff" opacity="0.3"/>
    <rect x="24.8" y="32" width="1.2" height="2" fill="#fff" opacity="0.3"/>
    <rect x="22" y="35" width="1.2" height="2" fill="#fff" opacity="0.3"/>
    <rect x="24.8" y="35" width="1.2" height="2" fill="#fff" opacity="0.3"/>
    
    <!-- Right building -->
    <rect x="29" y="24" width="7" height="18" rx="0.5"/>
    <rect x="31" y="27" width="1.2" height="2" fill="#fff" opacity="0.3"/>
    <rect x="33.5" y="27" width="1.2" height="2" fill="#fff" opacity="0.3"/>
    <rect x="31" y="30" width="1.2" height="2" fill="#fff" opacity="0.3"/>
    <rect x="33.5" y="30" width="1.2" height="2" fill="#fff" opacity="0.3"/>
    <rect x="31" y="33" width="1.2" height="2" fill="#fff" opacity="0.3"/>
    <rect x="33.5" y="33" width="1.2" height="2" fill="#fff" opacity="0.3"/>
    <rect x="31" y="36" width="1.2" height="2" fill="#fff" opacity="0.3"/>
    <rect x="33.5" y="36" width="1.2" height="2" fill="#fff" opacity="0.3"/>
    
    <!-- Radiating lines -->
    <line x1="24" y1="14" x2="24" y2="8" stroke="white" stroke-width="2" stroke-linecap="round"/>
    <line x1="18" y1="16" x2="14" y2="12" stroke="white" stroke-width="2" stroke-linecap="round"/>
    <line x1="30" y1="16" x2="34" y2="12" stroke="white" stroke-width="2" stroke-linecap="round"/>
    <line x1="13" y1="21" x2="8" y2="21" stroke="white" stroke-width="2" stroke-linecap="round"/>
    <line x1="35" y1="21" x2="40" y2="21" stroke="white" stroke-width="2" stroke-linecap="round"/>
  </g>
</svg>
